<svg width="40" height="40" viewBox="0 0 40 40" fill="none" xmlns="http://www.w3.org/2000/svg">
<path d="M13.9281 29.325C13.9281 29.325 14.7624 31.5687 14.2812 32.3594C13.7968 33.15 11.8624 32.9969 11.2687 33.3719C10.8437 33.6406 10.8499 34.3844 11.1156 34.6906C11.3781 35 15.2062 34.7344 15.9562 33.2844C16.7062 31.8344 15.6874 29.0594 15.6874 29.0594L13.9281 29.325Z" fill="#F97D23"/>
<path d="M20.0405 29.0594L18.4124 29.4125C18.4124 29.4125 19.1155 32.3594 18.5436 33.3281C17.9717 34.2969 15.9217 35.3312 15.553 36.1437C15.2217 36.8687 16.0374 37.4625 17.3124 36.6719C18.5874 35.8812 20.0311 34.7 20.303 34.1187C20.9655 32.7125 20.0405 29.0594 20.0405 29.0594Z" fill="#F97D23"/>
<path d="M8.91261 6.84375C5.45011 7.62188 2.75324 10.5406 3.76574 14.9813C4.36574 17.6156 4.73449 18.5438 4.95324 19.7313C5.41574 22.2281 5.29074 23.325 6.34699 25.6125C7.46886 28.0469 11.597 31.1719 16.7439 30.4219C21.8907 29.6719 23.9595 28.9688 23.9595 28.9688L25.8064 27.3406L27.5657 26.9L27.8282 25.625C27.8282 25.625 29.1439 25.5656 29.4126 25.1406C29.8376 24.4656 29.5876 23.9094 28.8407 23.6438C28.0939 23.3813 27.6532 23.1594 27.6532 23.1594C27.6532 23.1594 34.9126 18.3625 35.7907 17.8375C36.6689 17.3125 38.0345 16.4063 38.1001 16.0781C38.2657 15.2438 36.0095 13.3938 33.0626 12.5156C30.1157 11.6344 27.5845 11.3938 27.1689 11.725C26.6157 12.1594 24.1782 16.7406 22.5501 16.5219C20.4376 16.2344 18.9876 14.2563 18.5907 13.1344C18.1407 11.8625 15.4376 5.37813 8.91261 6.84375Z" fill="#36B4E1"/>
<path d="M4.46858 13.7063C3.94046 13.6188 2.59046 15.0563 2.32796 15.4063C2.06546 15.7563 1.64983 16.2594 1.79983 16.6375C2.03421 17.225 3.23733 17.2563 3.94046 17.3125C4.67483 17.3719 6.08108 17.4875 6.31546 17.05C6.54983 16.6094 6.05296 15.4969 5.64046 14.8219C5.25921 14.1938 5.01858 13.8 4.46858 13.7063Z" fill="#F97D23"/>
<path d="M10.2221 14.9809C10.9109 14.8977 11.3962 14.2247 11.3061 13.4777C11.2159 12.7306 10.5845 12.1924 9.89564 12.2755C9.20683 12.3586 8.72151 13.0316 8.81165 13.7787C8.90179 14.5257 9.53326 15.064 10.2221 14.9809Z" fill="#2A2D2F"/>
<path d="M14.1906 23.0344C13.5812 23.2562 14.3812 25.4094 15.2031 26.3781C16.0687 27.3969 18.1625 29.6844 21.3625 29.9844C23.5343 30.1906 24.5 29.575 25.0125 29.0156C25.3937 28.6 25.8031 28.1187 26.0843 27.9C26.4937 27.5781 26.9062 27.8562 27.6093 27.3437C28.1156 26.975 28.225 26.3625 28.4906 26.1406C28.7531 25.9219 29.2 25.9719 29.4281 25.7594C29.8375 25.3781 29.7812 24.2625 29.4875 24.2062C29.1937 24.15 29.1656 24.9969 28.8718 25.1156C28.5781 25.2344 28.1875 25.1594 27.6406 25.4687C27.1718 25.7312 27.3187 26.2594 26.9968 26.4937C26.675 26.7281 26.0875 26.4063 25.2968 26.8469C24.8687 27.0844 24.5062 28.225 23.2718 28.4906C21.7406 28.8187 19.4437 27.7031 18.3437 26.9062C15.7906 25.0562 15.2312 22.6531 14.1906 23.0344Z" fill="#026AA8"/>
</svg>
