<svg width="40" height="40" viewBox="0 0 40 40" fill="none" xmlns="http://www.w3.org/2000/svg">
<path d="M5.7002 35.8H34.2669V13.2333C34.2669 9.9 31.5669 7.2 28.2335 7.2H11.7335C8.4002 7.2 5.7002 9.9 5.7002 13.2333V35.8Z" fill="#F9F9F9"/>
<path d="M5.7002 12.8333V15.6H34.2669V12.8333C34.2669 9.73333 31.7335 7.2 28.6335 7.2H11.3335C8.23353 7.2 5.7002 9.73333 5.7002 12.8333Z" fill="#77D6FF"/>
<path d="M15.2613 12.8797C15.9512 12.1898 15.9512 11.0712 15.2613 10.3813C14.5714 9.69136 13.4528 9.69136 12.7629 10.3813C12.073 11.0712 12.073 12.1898 12.7629 12.8797C13.4528 13.5696 14.5714 13.5696 15.2613 12.8797Z" fill="#60C0E2"/>
<path d="M20.4092 13.3507C21.3588 13.1265 21.9468 12.175 21.7226 11.2254C21.4983 10.2759 20.5468 9.68789 19.5972 9.9121C18.6477 10.1363 18.0597 11.0879 18.2839 12.0374C18.5081 12.987 19.4597 13.575 20.4092 13.3507Z" fill="#60C0E2"/>
<path d="M26.4092 13.3499C27.3588 13.1257 27.9468 12.1741 27.7226 11.2246C27.4983 10.275 26.5468 9.68703 25.5973 9.91125C24.6477 10.1355 24.0597 11.087 24.2839 12.0366C24.5081 12.9861 25.4597 13.5741 26.4092 13.3499Z" fill="#60C0E2"/>
<path d="M14.0002 4.2C13.3002 4.2 12.7002 4.76666 12.7002 5.5V11.0333C12.7002 11.7333 13.2669 12.3333 14.0002 12.3333C14.7335 12.3333 15.3002 11.7667 15.3002 11.0333V5.5C15.3002 4.8 14.7002 4.2 14.0002 4.2Z" fill="#DEF4FF"/>
<path d="M26.0002 4.2C25.3002 4.2 24.7002 4.76666 24.7002 5.5V11.0333C24.7002 11.7333 25.2669 12.3333 26.0002 12.3333C26.7335 12.3333 27.3002 11.7667 27.3002 11.0333V5.5C27.3002 4.8 26.7002 4.2 26.0002 4.2Z" fill="#DEF4FF"/>
<path d="M20.0002 4.2C19.3002 4.2 18.7002 4.76666 18.7002 5.5V11.0333C18.7002 11.7333 19.2669 12.3333 20.0002 12.3333C20.7335 12.3333 21.3002 11.7667 21.3002 11.0333V5.5C21.3002 4.8 20.7002 4.2 20.0002 4.2Z" fill="#DEF4FF"/>
<path d="M28.1666 31.9L25.9 33.9C25.7333 34.0667 25.4333 33.9333 25.4 33.7L25.1333 30.6667C25.1333 30.6333 25.1333 30.5667 25.1666 30.5333L29.9 18.8333C29.9666 18.6667 30.1333 18.6 30.3 18.6667L32.8333 19.7C33 19.7667 33.0666 19.9333 33 20.1L28.2333 31.7667C28.2333 31.8333 28.2 31.8667 28.1666 31.9Z" fill="#FFDB86"/>
<path d="M31.8333 22.9L28.7666 21.6667L29.7999 19.1333C29.9333 18.8333 30.2666 18.7 30.5666 18.8L32.5666 19.6C32.8666 19.7333 32.9999 20.0667 32.8999 20.3667L31.8333 22.9Z" fill="#F27D75"/>
<path d="M28.2333 31.7667C28.2 31.8333 28.1666 31.8667 28.1333 31.9L25.8666 33.9333C25.7 34.1 25.4 33.9667 25.3666 33.7333L25.1333 30.6667C25.1333 30.6333 25.1333 30.5667 25.1666 30.5333V30.5L28.2333 31.7667Z" fill="#FCE5B9"/>
<path d="M25.667 19H21.3003V21.7667H25.667V19Z" fill="#F27D75"/>
<path d="M25.667 23.4667H21.3003V26.2333H25.667V23.4667Z" fill="#F27D75"/>
<path d="M13.4336 19H9.06689V21.7667H13.4336V19Z" fill="#A4E7FF"/>
<path d="M19.667 19H15.3003V21.7667H19.667V19Z" fill="#A4E7FF"/>
<path d="M13.4336 23.4667H9.06689V26.2333H13.4336V23.4667Z" fill="#A4E7FF"/>
<path d="M19.667 23.4667H15.3003V26.2333H19.667V23.4667Z" fill="#A4E7FF"/>
<path d="M13.4336 27.9333H9.06689V30.7H13.4336V27.9333Z" fill="#A4E7FF"/>
<path d="M19.667 27.9333H15.3003V30.7H19.667V27.9333Z" fill="#A4E7FF"/>
</svg>
