<svg width="52" height="52" viewBox="0 0 52 52" fill="none" xmlns="http://www.w3.org/2000/svg">
<g clip-path="url(#clip0_168_28)">
<rect width="52" height="52" rx="26" fill="white"/>
<path d="M26 52C32.8956 52 39.5088 49.2607 44.3848 44.3848C49.2607 39.5088 52 32.8956 52 26C52 19.1044 49.2607 12.4912 44.3848 7.61522C39.5088 2.73928 32.8956 0 26 0C19.1044 0 12.4912 2.73928 7.61522 7.61522C2.73928 12.4912 0 19.1044 0 26C0 32.8956 2.73928 39.5088 7.61522 44.3848C12.4912 49.2607 19.1044 52 26 52ZM23.5625 34.9375V28.4375H17.0625C15.7117 28.4375 14.625 27.3508 14.625 26C14.625 24.6492 15.7117 23.5625 17.0625 23.5625H23.5625V17.0625C23.5625 15.7117 24.6492 14.625 26 14.625C27.3508 14.625 28.4375 15.7117 28.4375 17.0625V23.5625H34.9375C36.2883 23.5625 37.375 24.6492 37.375 26C37.375 27.3508 36.2883 28.4375 34.9375 28.4375H28.4375V34.9375C28.4375 36.2883 27.3508 37.375 26 37.375C24.6492 37.375 23.5625 36.2883 23.5625 34.9375Z" fill="#F0C05A"/>
</g>
<defs>
<clipPath id="clip0_168_28">
<rect width="52" height="52" rx="26" fill="white"/>
</clipPath>
</defs>
</svg>
