<svg width="30" height="30" viewBox="0 0 30 30" fill="none" xmlns="http://www.w3.org/2000/svg">
<g clip-path="url(#clip0_38_72)">
<g filter="url(#filter0_d_38_72)">
<path d="M15 30C18.9782 30 22.7936 28.4196 25.6066 25.6066C28.4196 22.7936 30 18.9782 30 15C30 11.0218 28.4196 7.20644 25.6066 4.3934C22.7936 1.58035 18.9782 0 15 0C11.0218 0 7.20644 1.58035 4.3934 4.3934C1.58035 7.20644 0 11.0218 0 15C0 18.9782 1.58035 22.7936 4.3934 25.6066C7.20644 28.4196 11.0218 30 15 30ZM17.9707 19.0488L9.51562 22.3008C8.37891 22.7402 7.25977 21.6211 7.69922 20.4844L10.9512 12.0293C11.1445 11.5313 11.5313 11.1445 12.0293 10.9512L20.4844 7.69922C21.6211 7.25977 22.7402 8.37891 22.3008 9.51562L19.0488 17.9707C18.8613 18.4688 18.4688 18.8555 17.9707 19.0488ZM16.875 15C16.875 14.5027 16.6775 14.0258 16.3258 13.6742C15.9742 13.3225 15.4973 13.125 15 13.125C14.5027 13.125 14.0258 13.3225 13.6742 13.6742C13.3225 14.0258 13.125 14.5027 13.125 15C13.125 15.4973 13.3225 15.9742 13.6742 16.3258C14.0258 16.6775 14.5027 16.875 15 16.875C15.4973 16.875 15.9742 16.6775 16.3258 16.3258C16.6775 15.9742 16.875 15.4973 16.875 15Z" fill="#F0C05A"/>
</g>
</g>
<defs>
<filter id="filter0_d_38_72" x="-4" y="0" width="38" height="38" filterUnits="userSpaceOnUse" color-interpolation-filters="sRGB">
<feFlood flood-opacity="0" result="BackgroundImageFix"/>
<feColorMatrix in="SourceAlpha" type="matrix" values="0 0 0 0 0 0 0 0 0 0 0 0 0 0 0 0 0 0 127 0" result="hardAlpha"/>
<feOffset dy="4"/>
<feGaussianBlur stdDeviation="2"/>
<feComposite in2="hardAlpha" operator="out"/>
<feColorMatrix type="matrix" values="0 0 0 0 0 0 0 0 0 0 0 0 0 0 0 0 0 0 0.25 0"/>
<feBlend mode="normal" in2="BackgroundImageFix" result="effect1_dropShadow_38_72"/>
<feBlend mode="normal" in="SourceGraphic" in2="effect1_dropShadow_38_72" result="shape"/>
</filter>
<clipPath id="clip0_38_72">
<rect width="30" height="30" fill="white"/>
</clipPath>
</defs>
</svg>
