<svg width="25" height="24" viewBox="0 0 25 24" fill="none" xmlns="http://www.w3.org/2000/svg">
<path d="M21.7084 3.80209C21.1763 3.2698 20.5446 2.84755 19.8494 2.55946C19.1541 2.27138 18.4089 2.1231 17.6563 2.1231C16.9037 2.1231 16.1585 2.27138 15.4632 2.55946C14.7679 2.84755 14.1362 3.2698 13.6042 3.80209L12.5 4.90625L11.3959 3.80209C10.3212 2.72741 8.86362 2.12366 7.34379 2.12366C5.82397 2.12366 4.36639 2.72741 3.29171 3.80209C2.21703 4.87676 1.61328 6.33434 1.61328 7.85417C1.61328 9.37399 2.21703 10.8316 3.29171 11.9063L12.5 21.1146L21.7084 11.9063C22.2407 11.3742 22.6629 10.7425 22.951 10.0472C23.2391 9.35198 23.3874 8.60676 23.3874 7.85417C23.3874 7.10158 23.2391 6.35636 22.951 5.66109C22.6629 4.96582 22.2407 4.33412 21.7084 3.80209Z" stroke="#FF0000" stroke-width="4" stroke-linecap="round" stroke-linejoin="round"/>
</svg>
