<svg width="25" height="22" viewBox="0 0 25 22" fill="none" xmlns="http://www.w3.org/2000/svg">
<path d="M2.32422 12.668L11.1475 20.9053C11.5137 21.2471 11.9971 21.4375 12.5 21.4375C13.0029 21.4375 13.4863 21.2471 13.8525 20.9053L22.6758 12.668C24.1602 11.2861 25 9.34764 25 7.32127V7.03807C25 3.62499 22.5342 0.71483 19.1699 0.153307C16.9434 -0.217787 14.6777 0.509753 13.0859 2.10155L12.5 2.68749L11.9141 2.10155C10.3223 0.509753 8.05664 -0.217787 5.83008 0.153307C2.46582 0.71483 0 3.62499 0 7.03807V7.32127C0 9.34764 0.839844 11.2861 2.32422 12.668Z" fill="#FF0000"/>
</svg>
