<svg width="32" height="32" viewBox="0 0 32 32" fill="none" xmlns="http://www.w3.org/2000/svg">
<g clip-path="url(#clip0_38_74)">
<path d="M9.5062 2.38751C10.125 2.94376 10.175 3.88751 9.6187 4.50626L5.1187 9.50626C4.8437 9.81251 4.4562 9.99376 4.0437 10C3.6312 10.0063 3.23745 9.85001 2.9437 9.56251L0.437451 7.06251C-0.143799 6.47501 -0.143799 5.52501 0.437451 4.93751C1.0187 4.35001 1.97495 4.35001 2.5562 4.93751L3.93745 6.31876L7.3812 2.49376C7.93745 1.87501 8.8812 1.82501 9.49995 2.38126L9.5062 2.38751ZM9.5062 12.3875C10.125 12.9438 10.175 13.8875 9.6187 14.5063L5.1187 19.5063C4.8437 19.8125 4.4562 19.9938 4.0437 20C3.6312 20.0063 3.23745 19.85 2.9437 19.5625L0.437451 17.0625C-0.150049 16.475 -0.150049 15.525 0.437451 14.9438C1.02495 14.3625 1.97495 14.3563 2.5562 14.9438L3.93745 16.325L7.3812 12.5C7.93745 11.8813 8.8812 11.8313 9.49995 12.3875H9.5062ZM14 6.00001C14 4.89376 14.8937 4.00001 16 4.00001H30C31.1062 4.00001 32 4.89376 32 6.00001C32 7.10626 31.1062 8.00001 30 8.00001H16C14.8937 8.00001 14 7.10626 14 6.00001ZM14 16C14 14.8938 14.8937 14 16 14H30C31.1062 14 32 14.8938 32 16C32 17.1063 31.1062 18 30 18H16C14.8937 18 14 17.1063 14 16ZM9.99995 26C9.99995 24.8938 10.8937 24 12 24H30C31.1062 24 32 24.8938 32 26C32 27.1063 31.1062 28 30 28H12C10.8937 28 9.99995 27.1063 9.99995 26ZM2.99995 23C3.7956 23 4.55866 23.3161 5.12127 23.8787C5.68388 24.4413 5.99995 25.2044 5.99995 26C5.99995 26.7957 5.68388 27.5587 5.12127 28.1213C4.55866 28.6839 3.7956 29 2.99995 29C2.2043 29 1.44124 28.6839 0.878631 28.1213C0.316022 27.5587 -4.8846e-05 26.7957 -4.8846e-05 26C-4.8846e-05 25.2044 0.316022 24.4413 0.878631 23.8787C1.44124 23.3161 2.2043 23 2.99995 23Z" fill="white"/>
</g>
<defs>
<clipPath id="clip0_38_74">
<rect width="32" height="32" fill="white"/>
</clipPath>
</defs>
</svg>
