<svg width="32" height="32" viewBox="0 0 32 32" fill="none" xmlns="http://www.w3.org/2000/svg">
<g filter="url(#filter0_d_38_77)">
<path d="M23.0251 1.14375L19.5438 4.63125L27.3688 12.4563L30.8501 8.975C32.2188 7.60625 32.2188 5.39375 30.8501 4.025L27.9751 1.14375C26.6063 -0.225 24.3938 -0.225 23.0251 1.14375ZM18.0001 5.9125L17.4251 6.0875L8.41881 8.7875C7.17506 9.1625 6.18756 10.1125 5.77506 11.35L0.23756 27.8625C5.98346e-05 28.5687 0.17506 29.3563 0.69381 29.8875L10.2938 20.2938C10.1063 19.9 10.0001 19.4625 10.0001 19C10.0001 17.3438 11.3438 16 13.0001 16C14.6563 16 16.0001 17.3438 16.0001 19C16.0001 20.6562 14.6563 22 13.0001 22C12.5376 22 12.1001 21.8937 11.7063 21.7062L2.10631 31.3062C2.64381 31.825 3.42506 32.0063 4.13131 31.7625L20.6501 26.225C21.8813 25.8125 22.8376 24.825 23.2126 23.5812L25.9126 14.575L26.0813 14L18.0001 5.9125Z" fill="#F0C05A"/>
</g>
<defs>
<filter id="filter0_d_38_77" x="-3.8667" y="0.117188" width="39.7433" height="40.7523" filterUnits="userSpaceOnUse" color-interpolation-filters="sRGB">
<feFlood flood-opacity="0" result="BackgroundImageFix"/>
<feColorMatrix in="SourceAlpha" type="matrix" values="0 0 0 0 0 0 0 0 0 0 0 0 0 0 0 0 0 0 127 0" result="hardAlpha"/>
<feOffset dy="5"/>
<feGaussianBlur stdDeviation="2"/>
<feComposite in2="hardAlpha" operator="out"/>
<feColorMatrix type="matrix" values="0 0 0 0 0 0 0 0 0 0 0 0 0 0 0 0 0 0 0.25 0"/>
<feBlend mode="normal" in2="BackgroundImageFix" result="effect1_dropShadow_38_77"/>
<feBlend mode="normal" in="SourceGraphic" in2="effect1_dropShadow_38_77" result="shape"/>
</filter>
</defs>
</svg>
