<svg width="33" height="32" viewBox="0 0 33 32" fill="none" xmlns="http://www.w3.org/2000/svg">
<path d="M6.9 1.36875C7.25 2.41875 6.68125 3.55 5.6375 3.9L4 4.44375V12C4 15.3125 6.6875 18 10 18C13.3125 18 16 15.3125 16 12V4.44375L14.3687 3.9C13.3187 3.55 12.7562 2.41875 13.1062 1.36875C13.4562 0.318753 14.5875 -0.243747 15.6375 0.106253L17.2687 0.650003C18.9 1.19375 20 2.71875 20 4.44375V12C20 16.825 16.5875 20.85 12.0437 21.7938C12.4375 25.2875 15.4 28 19 28C22.8688 28 26 24.8688 26 21V16.5813C24.2313 15.8125 23 14.05 23 12C23 9.2375 25.2375 7 28 7C30.7625 7 33 9.2375 33 12C33 14.05 31.7687 15.8125 30 16.5813V21C30 27.075 25.075 32 19 32C13.1937 32 8.44375 27.5063 8.03125 21.8063C3.45 20.8875 0 16.85 0 12V4.44375C0 2.725 1.1 1.19375 2.7375 0.650003L4.36875 0.106253C5.41875 -0.243747 6.55 0.325003 6.9 1.36875ZM28 14C28.5304 14 29.0391 13.7893 29.4142 13.4142C29.7893 13.0391 30 12.5304 30 12C30 11.4696 29.7893 10.9609 29.4142 10.5858C29.0391 10.2107 28.5304 10 28 10C27.4696 10 26.9609 10.2107 26.5858 10.5858C26.2107 10.9609 26 11.4696 26 12C26 12.5304 26.2107 13.0391 26.5858 13.4142C26.9609 13.7893 27.4696 14 28 14Z" fill="white"/>
</svg>
