<svg width="36" height="32" viewBox="0 0 36 32" fill="none" xmlns="http://www.w3.org/2000/svg">
<g filter="url(#filter0_d_225_43)">
<path d="M8.9 1.36872C9.25 2.41872 8.68125 3.54997 7.6375 3.89997L6 4.44372V12C6 15.3125 8.6875 18 12 18C15.3125 18 18 15.3125 18 12V4.44372L16.3687 3.89997C15.3187 3.54997 14.7562 2.41872 15.1062 1.36872C15.4562 0.318723 16.5875 -0.243777 17.6375 0.106223L19.2687 0.649973C20.9 1.19372 22 2.71872 22 4.44372V12C22 16.825 18.5875 20.85 14.0437 21.7937C14.4375 25.2875 17.4 28 21 28C24.8688 28 28 24.8687 28 21V16.5812C26.2313 15.8125 25 14.05 25 12C25 9.23747 27.2375 6.99997 30 6.99997C32.7625 6.99997 35 9.23747 35 12C35 14.05 33.7687 15.8125 32 16.5812V21C32 27.075 27.075 32 21 32C15.1937 32 10.4437 27.5062 10.0312 21.8062C5.45 20.8875 2 16.85 2 12V4.44372C2 2.72497 3.1 1.19372 4.7375 0.649973L6.36875 0.106223C7.41875 -0.243777 8.55 0.324973 8.9 1.36872ZM30 14C30.5304 14 31.0391 13.7893 31.4142 13.4142C31.7893 13.0391 32 12.5304 32 12C32 11.4695 31.7893 10.9608 31.4142 10.5858C31.0391 10.2107 30.5304 9.99997 30 9.99997C29.4696 9.99997 28.9609 10.2107 28.5858 10.5858C28.2107 10.9608 28 11.4695 28 12C28 12.5304 28.2107 13.0391 28.5858 13.4142C28.9609 13.7893 29.4696 14 30 14Z" fill="#FFDB86"/>
</g>
<defs>
<filter id="filter0_d_225_43" x="-2" y="0.00231934" width="41" height="39.9977" filterUnits="userSpaceOnUse" color-interpolation-filters="sRGB">
<feFlood flood-opacity="0" result="BackgroundImageFix"/>
<feColorMatrix in="SourceAlpha" type="matrix" values="0 0 0 0 0 0 0 0 0 0 0 0 0 0 0 0 0 0 127 0" result="hardAlpha"/>
<feOffset dy="4"/>
<feGaussianBlur stdDeviation="2"/>
<feComposite in2="hardAlpha" operator="out"/>
<feColorMatrix type="matrix" values="0 0 0 0 0 0 0 0 0 0 0 0 0 0 0 0 0 0 0.25 0"/>
<feBlend mode="normal" in2="BackgroundImageFix" result="effect1_dropShadow_225_43"/>
<feBlend mode="normal" in="SourceGraphic" in2="effect1_dropShadow_225_43" result="shape"/>
</filter>
</defs>
</svg>